<svg width="148" height="52" viewBox="0 0 148 52" fill="none" xmlns="http://www.w3.org/2000/svg">
<g clip-path="url(#clip0_143_114)">
<path d="M4.82812 4.65625V33.7422C4.82812 34.5078 4.66406 35.0781 4.33594 35.4531C3.94531 35.9219 3.39062 36.3359 2.67188 36.6953C1.96875 37.0547 1.39062 37.2344 0.9375 37.2344C0.390625 37.2344 0.117188 36.8984 0.117188 36.2266V7.14062C0.117188 6.48438 0.281249 5.96094 0.609374 5.57031C1.01562 5.08594 1.57031 4.64844 2.27344 4.25781C2.97656 3.85156 3.55469 3.64844 4.00781 3.64844C4.55469 3.64844 4.82812 3.98438 4.82812 4.65625ZM17.4375 36.2734L6.65625 20.875C6.32812 20.4219 6.16406 20.0078 6.16406 19.6328C6.16406 19.0859 6.4375 18.4609 6.98438 17.7578L15.8203 6.03906C16.5547 5.05469 17.2188 4.41406 17.8125 4.11719C18.4219 3.80469 19.3125 3.64844 20.4844 3.64844C21.3438 3.64844 21.7734 3.88281 21.7734 4.35156C21.7734 4.69531 21.5469 5.14844 21.0938 5.71094L11.7422 17.5234C11.2891 18.1016 11.0625 18.5625 11.0625 18.9062C11.0625 19.2344 11.2969 19.7109 11.7656 20.3359L21.0938 32.7812C21.4219 33.2344 21.5859 33.6484 21.5859 34.0234C21.5859 34.4609 21.4531 34.9062 21.1875 35.3594C20.4062 36.6094 19.5781 37.2344 18.7031 37.2344C18.3125 37.2344 17.8906 36.9141 17.4375 36.2734ZM29.6953 22.0703C29.6953 22.5078 29.8281 22.7891 30.0938 22.9141C30.375 23.0234 30.7812 23.0781 31.3125 23.0781C32.6719 23.0781 33.8359 22.9609 34.8047 22.7266C35.7734 22.4922 36.5156 22.1641 37.0312 21.7422C37.5469 21.3203 37.9141 20.875 38.1328 20.4062C38.3672 19.9375 38.4844 19.4219 38.4844 18.8594C38.4844 17.8906 38.1484 17.1172 37.4766 16.5391C36.8047 15.9453 35.7266 15.6484 34.2422 15.6484C31.9141 15.6484 29.7266 16.3828 27.6797 17.8516C27.0703 18.3047 26.6875 18.5312 26.5312 18.5312C26.2656 18.5312 26.1328 18.3828 26.1328 18.0859C26.1328 17.6953 26.3594 17.2188 26.8125 16.6562C27.6562 15.5781 28.6172 14.6953 29.6953 14.0078C30.7734 13.3203 31.7578 12.8594 32.6484 12.625C33.5391 12.3906 34.4219 12.2734 35.2969 12.2734C36.4219 12.2734 37.4375 12.3906 38.3438 12.625C39.25 12.8594 40.0547 13.2266 40.7578 13.7266C41.4609 14.2109 42.0078 14.8828 42.3984 15.7422C42.7891 16.5859 42.9844 17.5781 42.9844 18.7188C42.9844 21.1562 41.8203 23.0391 39.4922 24.3672C37.1797 25.6797 34.0156 26.3359 30 26.3359C28.875 26.3359 27.6016 26.2734 26.1797 26.1484C25.4766 26.1016 25.125 25.7578 25.125 25.1172C25.125 23.3828 25.375 22.0859 25.875 21.2266C26.375 20.3516 27.0234 19.6797 27.8203 19.2109C28.6016 18.7578 29.1953 18.5312 29.6016 18.5312C29.9766 18.5312 30.1641 18.7656 30.1641 19.2344C30.1641 19.4219 30.0859 19.8828 29.9297 20.6172C29.7734 21.3359 29.6953 21.8203 29.6953 22.0703ZM25.3125 28.6094C25.3125 27.7969 25.6875 27.3906 26.4375 27.3906H28.4531C28.8594 27.3906 29.1406 27.4688 29.2969 27.625C29.4688 27.7812 29.6016 28.125 29.6953 28.6562C30.3047 32.4531 32.3828 34.3516 35.9297 34.3516C36.8203 34.3516 37.6562 34.2422 38.4375 34.0234C39.2188 33.8047 39.8203 33.5625 40.2422 33.2969C40.6797 33.0312 41.0781 32.7891 41.4375 32.5703C41.8125 32.3516 42.0859 32.2422 42.2578 32.2422C42.6172 32.2422 42.7969 32.4375 42.7969 32.8281C42.7969 33.1562 42.6172 33.5781 42.2578 34.0938C41.8984 34.6094 41.3828 35.1484 40.7109 35.7109C40.0547 36.2578 39.1406 36.7266 37.9688 37.1172C36.8125 37.5234 35.5547 37.7266 34.1953 37.7266C31.3828 37.7266 29.1953 36.8828 27.6328 35.1953C26.0859 33.4922 25.3125 31.2969 25.3125 28.6094ZM52.7344 1.07031V4.5625C52.7344 5.39062 52.3359 6.08594 51.5391 6.64844C50.7578 7.21094 50.0234 7.49219 49.3359 7.49219C48.7891 7.49219 48.5156 7.15625 48.5156 6.48438V2.875C48.5156 2.14062 48.9062 1.49219 49.6875 0.929688C50.4688 0.351562 51.2109 0.0625 51.9141 0.0625C52.4609 0.0625 52.7344 0.398438 52.7344 1.07031ZM52.7344 13.2812V41.7578C52.7344 43.1797 52.5781 44.4609 52.2656 45.6016C51.9531 46.7422 51.5547 47.6328 51.0703 48.2734C50.6016 48.9141 50.1172 49.3984 49.6172 49.7266C49.1328 50.0547 48.6719 50.2188 48.2344 50.2188C47.9375 50.2188 47.7891 50.0859 47.7891 49.8203C47.7891 49.7266 47.8828 49.4531 48.0703 49C48.2578 48.5625 48.3828 48.0938 48.4453 47.5938C48.5234 47.0469 48.5625 46.1016 48.5625 44.7578L48.5156 15.2969C48.5156 14.7031 48.6562 14.2266 48.9375 13.8672C49.3438 13.3984 49.8203 13.0156 50.3672 12.7188C50.9297 12.4219 51.4453 12.2734 51.9141 12.2734C52.4609 12.2734 52.7344 12.6094 52.7344 13.2812ZM43.3359 46.8906C43.8672 47.5 44.4609 47.8047 45.1172 47.8047C45.3359 47.8047 45.625 47.7109 45.9844 47.5234C46.3594 47.3516 46.6016 47.2656 46.7109 47.2656C47.0234 47.2656 47.1797 47.4453 47.1797 47.8047C47.1797 48.0547 47.0938 48.3594 46.9219 48.7188C46.7656 49.0781 46.5391 49.4453 46.2422 49.8203C45.9609 50.1953 45.5703 50.5078 45.0703 50.7578C44.5703 51.0234 44.0312 51.1562 43.4531 51.1562C42.3438 51.1562 41.4375 50.8672 40.7344 50.2891C40.0312 49.7109 39.6797 49.1406 39.6797 48.5781C39.6797 48.0312 39.9688 47.4844 40.5469 46.9375C41.1094 46.4219 41.6172 46.1641 42.0703 46.1641C42.4922 46.1641 42.9141 46.4062 43.3359 46.8906ZM62.3672 22.0703C62.3672 22.5078 62.5 22.7891 62.7656 22.9141C63.0469 23.0234 63.4531 23.0781 63.9844 23.0781C65.3438 23.0781 66.5078 22.9609 67.4766 22.7266C68.4453 22.4922 69.1875 22.1641 69.7031 21.7422C70.2188 21.3203 70.5859 20.875 70.8047 20.4062C71.0391 19.9375 71.1562 19.4219 71.1562 18.8594C71.1562 17.8906 70.8203 17.1172 70.1484 16.5391C69.4766 15.9453 68.3984 15.6484 66.9141 15.6484C64.5859 15.6484 62.3984 16.3828 60.3516 17.8516C59.7422 18.3047 59.3594 18.5312 59.2031 18.5312C58.9375 18.5312 58.8047 18.3828 58.8047 18.0859C58.8047 17.6953 59.0312 17.2188 59.4844 16.6562C60.3281 15.5781 61.2891 14.6953 62.3672 14.0078C63.4453 13.3203 64.4297 12.8594 65.3203 12.625C66.2109 12.3906 67.0938 12.2734 67.9688 12.2734C69.0938 12.2734 70.1094 12.3906 71.0156 12.625C71.9219 12.8594 72.7266 13.2266 73.4297 13.7266C74.1328 14.2109 74.6797 14.8828 75.0703 15.7422C75.4609 16.5859 75.6562 17.5781 75.6562 18.7188C75.6562 21.1562 74.4922 23.0391 72.1641 24.3672C69.8516 25.6797 66.6875 26.3359 62.6719 26.3359C61.5469 26.3359 60.2734 26.2734 58.8516 26.1484C58.1484 26.1016 57.7969 25.7578 57.7969 25.1172C57.7969 23.3828 58.0469 22.0859 58.5469 21.2266C59.0469 20.3516 59.6953 19.6797 60.4922 19.2109C61.2734 18.7578 61.8672 18.5312 62.2734 18.5312C62.6484 18.5312 62.8359 18.7656 62.8359 19.2344C62.8359 19.4219 62.7578 19.8828 62.6016 20.6172C62.4453 21.3359 62.3672 21.8203 62.3672 22.0703ZM57.9844 28.6094C57.9844 27.7969 58.3594 27.3906 59.1094 27.3906H61.125C61.5312 27.3906 61.8125 27.4688 61.9688 27.625C62.1406 27.7812 62.2734 28.125 62.3672 28.6562C62.9766 32.4531 65.0547 34.3516 68.6016 34.3516C69.4922 34.3516 70.3281 34.2422 71.1094 34.0234C71.8906 33.8047 72.4922 33.5625 72.9141 33.2969C73.3516 33.0312 73.75 32.7891 74.1094 32.5703C74.4844 32.3516 74.7578 32.2422 74.9297 32.2422C75.2891 32.2422 75.4688 32.4375 75.4688 32.8281C75.4688 33.1562 75.2891 33.5781 74.9297 34.0938C74.5703 34.6094 74.0547 35.1484 73.3828 35.7109C72.7266 36.2578 71.8125 36.7266 70.6406 37.1172C69.4844 37.5234 68.2266 37.7266 66.8672 37.7266C64.0547 37.7266 61.8672 36.8828 60.3047 35.1953C58.7578 33.4922 57.9844 31.2969 57.9844 28.6094Z" fill="#7725C9"/>
<path d="M85.9219 14.2422C87.7188 12.9297 89.5469 12.2734 91.4062 12.2734C94.1875 12.2734 96.3438 13.2344 97.875 15.1562C99.4062 17.0625 100.172 20.0391 100.172 24.0859C100.172 25.6172 100.016 27.1562 99.7031 28.7031C99.3906 30.25 98.9609 31.5781 98.4141 32.6875C97.8359 33.875 97.1172 34.875 96.2578 35.6875C95.4141 36.5 94.7266 36.9062 94.1953 36.9062C93.8672 36.9062 93.7031 36.7578 93.7031 36.4609C93.7031 36.3672 93.75 36.25 93.8438 36.1094C93.9531 35.9531 94.1016 35.7109 94.2891 35.3828C94.4766 35.0547 94.6484 34.6797 94.8047 34.2578C95.3984 32.5859 95.6953 30.1094 95.6953 26.8281C95.6953 25.4062 95.6328 24.1406 95.5078 23.0312C95.3984 21.9219 95.2031 20.8984 94.9219 19.9609C94.6406 19.0078 94.2734 18.2266 93.8203 17.6172C93.3672 16.9922 92.7891 16.5078 92.0859 16.1641C91.3984 15.8203 90.5938 15.6484 89.6719 15.6484C88.4062 15.6484 87.2656 15.9062 86.25 16.4219C85.25 16.9375 83.8516 17.875 82.0547 19.2344C81.5547 19.625 81.1641 19.8203 80.8828 19.8203C80.5703 19.8203 80.4141 19.5703 80.4141 19.0703V15.1328C80.4141 14.3359 80.8203 13.6641 81.6328 13.1172C82.4453 12.5547 83.1719 12.2734 83.8125 12.2734C84.3594 12.2734 84.6328 12.6094 84.6328 13.2812V13.8672C84.6328 14.4297 84.7578 14.7109 85.0078 14.7109C85.2109 14.7109 85.5156 14.5547 85.9219 14.2422ZM86.0859 33.6484C86.7891 34.1172 87.7422 34.3516 88.9453 34.3516C89.9766 34.3516 90.8906 34.2344 91.6875 34C92.5 33.7656 92.9141 33.6484 92.9297 33.6484C93.2578 33.6484 93.4219 33.8203 93.4219 34.1641C93.4219 34.9766 92.8203 35.7734 91.6172 36.5547C90.4141 37.3359 88.9688 37.7266 87.2812 37.7266C85.5312 37.7266 83.9922 37.3281 82.6641 36.5312C81.8516 36.0469 81.2734 35.4844 80.9297 34.8438C80.5859 34.2031 80.4141 33.3828 80.4141 32.3828V23.6641C80.4141 22.7734 80.625 22.0938 81.0469 21.625C81.4688 21.1406 81.9688 20.7109 82.5469 20.3359C83.125 19.9453 83.5781 19.75 83.9062 19.75C84.3906 19.75 84.6328 20.0859 84.6328 20.7578V30.1328C84.6328 31.8359 85.1172 33.0078 86.0859 33.6484ZM84.6328 40.6797V48.1328C84.6328 48.9922 84.2422 49.7109 83.4609 50.2891C82.6953 50.8672 81.9531 51.1562 81.2344 51.1562C80.6875 51.1562 80.4141 50.8203 80.4141 50.1484V38.4062C80.4141 37.7031 80.6875 37.3516 81.2344 37.3516C81.8594 37.3516 82.7344 37.7891 83.8594 38.6641C84.375 39.0547 84.6328 39.7266 84.6328 40.6797ZM114.609 12.2734C115.922 12.2734 117.102 12.4453 118.148 12.7891C119.195 13.1328 120.078 13.6875 120.797 14.4531C121.516 15.2031 122.062 16.1797 122.438 17.3828C122.828 18.5703 123.023 20.0078 123.023 21.6953V34.3984C123.023 34.7891 122.898 35.1562 122.648 35.5C122.414 35.8438 122.117 36.1484 121.758 36.4141C121.414 36.6641 121.039 36.8594 120.633 37C120.242 37.1562 119.898 37.2344 119.602 37.2344C119.055 37.2344 118.781 36.8984 118.781 36.2266V22.5625C118.781 17.9531 116.953 15.6484 113.297 15.6484C111.172 15.6484 109.242 16.2344 107.508 17.4062C106.82 17.8594 106.375 18.0859 106.172 18.0859C105.938 18.0859 105.82 17.9609 105.82 17.7109C105.82 17.2734 106.062 16.7578 106.547 16.1641C108.672 13.5703 111.359 12.2734 114.609 12.2734ZM117 35.6875C116.344 36.2812 115.531 36.7656 114.562 37.1406C113.594 37.5312 112.664 37.7266 111.773 37.7266C109.695 37.7266 108.102 37.1797 106.992 36.0859C105.898 34.9766 105.352 33.6172 105.352 32.0078C105.352 30.8516 105.75 29.9688 106.547 29.3594C107.266 28.7969 107.891 28.5156 108.422 28.5156C108.594 28.5156 108.742 28.5781 108.867 28.7031C108.992 28.8281 109.055 29.0156 109.055 29.2656C109.055 31.0469 109.359 32.3438 109.969 33.1562C110.578 33.9531 111.664 34.3516 113.227 34.3516C113.695 34.3516 114.266 34.2734 114.938 34.1172C115.609 33.9453 116.18 33.7188 116.648 33.4375C116.93 33.2656 117.141 33.1797 117.281 33.1797C117.5 33.1797 117.609 33.4688 117.609 34.0469C117.609 34.7656 117.406 35.3125 117 35.6875ZM116.812 23.0312C117.109 23.1875 117.312 23.3984 117.422 23.6641C117.531 23.9141 117.586 24.3906 117.586 25.0938C117.586 25.7188 117.531 26.1719 117.422 26.4531C117.328 26.7188 117.148 26.8516 116.883 26.8516C116.711 26.8516 116.469 26.7812 116.156 26.6406C114.688 26 113.359 25.6797 112.172 25.6797C110.25 25.6797 108.422 26.375 106.688 27.7656C106.141 28.2031 105.773 28.4219 105.586 28.4219C105.336 28.4219 105.211 28.2812 105.211 28C105.211 27.5625 105.367 27.0859 105.68 26.5703C106.508 25.1797 107.594 24.125 108.938 23.4062C110.297 22.6719 111.805 22.3047 113.461 22.3047C114.727 22.3047 115.844 22.5469 116.812 23.0312ZM135.984 37.7266C134.672 37.7266 133.539 37.5547 132.586 37.2109C131.648 36.8828 130.883 36.3359 130.289 35.5703C129.695 34.7891 129.258 33.7812 128.977 32.5469C128.695 31.3125 128.555 29.7891 128.555 27.9766V15.25C128.555 14.8281 128.664 14.4375 128.883 14.0781C129.117 13.7031 129.398 13.3828 129.727 13.1172C130.07 12.8516 130.438 12.6484 130.828 12.5078C131.234 12.3516 131.609 12.2734 131.953 12.2734C132.5 12.2734 132.773 12.6094 132.773 13.2812V26.5L132.844 28.5625C132.859 29.0156 132.883 29.3828 132.914 29.6641C132.945 29.9297 132.984 30.1719 133.031 30.3906C133.078 30.6094 133.125 30.8203 133.172 31.0234C133.234 31.2266 133.312 31.4844 133.406 31.7969C133.672 32.7344 134.18 33.3984 134.93 33.7891C135.68 34.1641 136.625 34.3516 137.766 34.3516C138.938 34.3516 140.055 34.0469 141.117 33.4375C141.414 33.2656 141.617 33.1797 141.727 33.1797C141.961 33.1797 142.078 33.4688 142.078 34.0469C142.078 34.6875 141.852 35.2422 141.398 35.7109C140.945 36.1641 140.398 36.5391 139.758 36.8359C139.117 37.1328 138.445 37.3516 137.742 37.4922C137.055 37.6484 136.469 37.7266 135.984 37.7266ZM147.469 13.2812V41.7578C147.469 42.9297 147.32 44.0078 147.023 44.9922C146.727 45.9922 146.352 46.7969 145.898 47.4062C145.461 48.0312 144.977 48.5625 144.445 49C143.914 49.4375 143.43 49.7422 142.992 49.9141C142.57 50.1016 142.203 50.1953 141.891 50.1953C141.641 50.1953 141.516 50.0859 141.516 49.8672C141.516 49.7266 141.641 49.4844 141.891 49.1406C142.422 48.4062 142.781 47.4766 142.969 46.3516C143.172 45.2422 143.273 43.7422 143.273 41.8516L143.227 15.2969C143.227 14.6875 143.375 14.2109 143.672 13.8672C144.078 13.3984 144.555 13.0156 145.102 12.7188C145.664 12.4219 146.18 12.2734 146.648 12.2734C147.195 12.2734 147.469 12.6094 147.469 13.2812ZM133.688 46.6094C134.25 47.0312 134.773 47.3281 135.258 47.5C135.742 47.6875 136.336 47.7812 137.039 47.7812C137.664 47.7812 138.375 47.6953 139.172 47.5234C139.984 47.3516 140.414 47.2656 140.461 47.2656C140.867 47.2656 141.07 47.4609 141.07 47.8516C141.07 48.5703 140.461 49.2969 139.242 50.0312C138.023 50.7812 136.711 51.1562 135.305 51.1562C133.93 51.1562 132.625 50.8672 131.391 50.2891C130.172 49.7109 129.562 49.1406 129.562 48.5781C129.562 48.0156 129.883 47.4844 130.523 46.9844C131.258 46.375 131.859 46.0703 132.328 46.0703C132.797 46.0703 133.25 46.25 133.688 46.6094Z" fill="black"/>
</g>
<defs>
<clipPath id="clip0_143_114">
<rect width="148" height="52" fill="white"/>
</clipPath>
</defs>
</svg>
